<?xml version="1.0" standalone="yes"?>
<svg xmlns="http://www.w3.org/2000/svg" width="242" height="242">
<path style="fill:#ffffff; stroke:none;" d="M0 0L0 242L242 242L242 0L0 0z"/>
<path style="fill:#ffe4c9; stroke:none;" d="M154 19L157 18C155.222 17.0446 154.979 17.2338 154 19z"/>
<path style="fill:#fed2a3; stroke:none;" d="M155 18L156 21C156.685 19.7515 156.749 19.4516 157 18L155 18z"/>
<path style="fill:#fed4af; stroke:none;" d="M150 25C152.08 23.1583 153.509 21.3497 155 19C152.082 20.5169 151.078 21.8927 150 25z"/>
<path style="fill:#febc7b; stroke:none;" d="M155 19C153.2 21.6383 152.697 22.8312 153 26C154.661 23.6639 155.687 21.8131 155 19z"/>
<path style="fill:#fecf9d; stroke:none;" d="M155 22L154 26C155.146 24.3596 155.393 23.924 155 22z"/>
<path style="fill:#fee1c4; stroke:none;" d="M149 24C146.072 31.0328 140.729 37.6381 139 45C143.3 40.831 150.69 30.1634 149 24z"/>
<path style="fill:#fea851; stroke:none;" d="M150 27C152.647 27 152 28.5392 152 31C152.985 28.6685 152.981 26.5434 153 24C150.876 24.8993 150.899 24.8764 150 27z"/>
<path style="fill:#fe9b3d; stroke:none;" d="M151 26C150.481 28.3374 150.52 29.6403 151 32C151.951 29.7147 151.951 28.2853 151 26z"/>
<path style="fill:#fdcd99; stroke:none;" d="M153.333 26.6667C153.278 26.7222 153.222 27.7778 153.667 27.3333C153.722 27.2778 153.778 26.2222 153.333 26.6667z"/>
<path style="fill:#feb16a; stroke:none;" d="M149 27L148 31C149.303 29.3324 149.553 29.0078 149 27z"/>
<path style="fill:#fee1c2; stroke:none;" d="M153.333 28.6667C153.278 28.7222 153.222 29.7778 153.667 29.3333C153.722 29.2778 153.778 28.2222 153.333 28.6667z"/>
<path style="fill:#fe8e22; stroke:none;" d="M149 30C145.694 36.0688 144.198 43.227 143 50C147.186 44.9239 150.202 36.5079 151 30L149 30z"/>
<path style="fill:#feaf67; stroke:none;" d="M147.333 31.6667C147.278 31.7222 147.222 32.7778 147.667 32.3333C147.722 32.2777 147.778 31.2223 147.333 31.6667z"/>
<path style="fill:#fedeb9; stroke:none;" d="M152.333 31.6667C152.278 31.7222 152.222 32.7778 152.667 32.3333C152.722 32.2778 152.778 31.2223 152.333 31.6667z"/>
<path style="fill:#fec383; stroke:none;" d="M151.333 32.6667C151.278 32.7222 151.222 33.7778 151.667 33.3333C151.722 33.2778 151.778 32.2222 151.333 32.6667z"/>
<path style="fill:#fea85c; stroke:none;" d="M146 33L145 37C146.303 35.3324 146.553 35.0078 146 33z"/>
<path style="fill:#febb75; stroke:none;" d="M150.333 34.6667C150.278 34.7222 150.222 35.7778 150.667 35.3333C150.722 35.2778 150.778 34.2223 150.333 34.6667z"/>
<path style="fill:#fde8d1; stroke:none;" d="M151.333 34.6667C151.278 34.7222 151.222 35.7778 151.667 35.3333C151.722 35.2778 151.778 34.2222 151.333 34.6667z"/>
<path style="fill:#fea851; stroke:none;" d="M149 35L149 38C149.696 36.4463 149.696 36.5537 149 35z"/>
<path style="fill:#fedeb8; stroke:none;" d="M150.333 36.6667C150.278 36.7222 150.222 37.7778 150.667 37.3333C150.722 37.2777 150.778 36.2223 150.333 36.6667z"/>
<path style="fill:#fe9d46; stroke:none;" d="M144 37L142 42C143.848 40.2198 144.566 39.5087 144 37z"/>
<path style="fill:#fdc287; stroke:none;" d="M149 38C148.043 39.5167 147.613 40.3385 147 42C148.63 40.4852 149.163 40.1447 149 38z"/>
<path style="fill:#ffeedb; stroke:none;" d="M84 40C84.0444 43.8266 84.2129 46.2715 87 49C86.1552 46.3046 85.3431 43.8061 85 41L89 41C87.231 40.2211 85.9641 40.0876 84 40z"/>
<path style="fill:#fe830e; stroke:none;" d="M140 51L143 51L146 40C141.443 42.3696 140.258 46.0434 140 51z"/>
<path style="fill:#fed6b0; stroke:none;" d="M85 41L85 46C86.2654 44.1872 87.1021 43.1173 89 42C87.4939 41.317 86.6852 41.1741 85 41z"/>
<path style="fill:#fcd6af; stroke:none;" d="M148 41C147.014 42.4785 147 42.2032 147 44C148.289 42.5574 148.401 42.7663 148 41z"/>
<path style="fill:#feb472; stroke:none;" d="M86 42C86.2297 45.1983 86.7038 46.7655 89 49L87 43L93 47C91.316 43.6548 89.6983 42.5742 86 42z"/>
<path style="fill:#fda959; stroke:none;" d="M141.333 42.6667C141.278 42.7222 141.222 43.7778 141.667 43.3333C141.722 43.2777 141.778 42.2223 141.333 42.6667z"/>
<path style="fill:#fe9638; stroke:none;" d="M87 43L87 46C88.0154 44.8607 88.3087 44.3884 89 43L87 43z"/>
<path style="fill:#fe8311; stroke:none;" d="M88 44C89.4396 52.101 95.58 57.4213 98 65L102 65C100.444 58.4365 94.0949 47.2203 88 44z"/>
<path style="fill:#feb473; stroke:none;" d="M140 44C139.014 45.4785 139 45.2032 139 47C140.289 45.5574 140.401 45.7663 140 44z"/>
<path style="fill:#fcc17f; stroke:none;" d="M146 44L143 52C145.379 49.6165 146.923 47.3716 146 44z"/>
<path style="fill:#fee0c0; stroke:none;" d="M138.333 45.6667C138.278 45.7222 138.222 46.7778 138.667 46.3333C138.722 46.2777 138.778 45.2223 138.333 45.6667z"/>
<path style="fill:#fec798; stroke:none;" d="M93.3333 46.6667C93.2779 46.7222 93.2222 47.7778 93.6667 47.3333C93.7223 47.2777 93.7778 46.2223 93.3333 46.6667z"/>
<path style="fill:#fea34a; stroke:none;" d="M92 47C92.6836 48.58 92.8048 48.7772 94 50C93.3164 48.42 93.1952 48.2228 92 47z"/>
<path style="fill:#ffe4c3; stroke:none;" d="M137 47L137 52C137.83 49.9695 137.83 49.0305 137 47z"/>
<path style="fill:#fec281; stroke:none;" d="M138 47L138 53L143 53C141.494 52.317 140.685 52.1741 139 52C138.912 50.0359 138.779 48.769 138 47z"/>
<path style="fill:#fea041; stroke:none;" d="M139 47L139 52L143 52C141.752 51.3152 141.452 51.2512 140 51C139.826 49.3148 139.683 48.506 139 47z"/>
<path style="fill:#ffeedb; stroke:none;" d="M208 47C209.402 48.3508 210.176 49.2543 211 51C211.683 49.4939 211.826 48.6852 212 47L208 47z"/>
<path style="fill:#fdd39f; stroke:none;" d="M87 48C87.6836 49.58 87.8048 49.7772 89 51C88.3164 49.42 88.1952 49.2228 87 48z"/>
<path style="fill:#fec392; stroke:none;" d="M94 48L95 52C95.553 49.9922 95.303 49.6676 94 48z"/>
<path style="fill:#ffecd8; stroke:none;" d="M202 49C203.943 49.6218 204.949 49.4358 207 49C205.057 48.3782 204.051 48.5642 202 49z"/>
<path style="fill:#fed1a4; stroke:none;" d="M207 48C208.402 49.3508 209.176 50.2543 210 52C210.683 50.4939 210.826 49.6852 211 48L207 48z"/>
<path style="fill:#feb05a; stroke:none;" d="M89 49L90 53C90.393 51.076 90.1456 50.6405 89 49z"/>
<path style="fill:#fec089; stroke:none;" d="M205.667 49.3333C205.222 49.7778 206.278 49.7222 206.333 49.6667C206.778 49.2222 205.722 49.2777 205.667 49.3333z"/>
<path style="fill:#feb166; stroke:none;" d="M207 49L209 52C210.118 49.8603 209.251 49.4733 207 49z"/>
<path style="fill:#fff7f1; stroke:none;" d="M87 50L92 61C93.361 56.7127 90.1062 52.7655 87 50z"/>
<path style="fill:#fdd1af; stroke:none;" d="M96 50C96.641 53.2098 97.5419 54.8444 100 57C99.0061 54.2876 97.8846 52.1878 96 50z"/>
<path style="fill:#fed7b1; stroke:none;" d="M201.667 50.3333C201.222 50.7778 202.278 50.7222 202.333 50.6667C202.778 50.2222 201.722 50.2777 201.667 50.3333z"/>
<path style="fill:#feb370; stroke:none;" d="M203.667 50.3333C203.222 50.7779 204.278 50.7222 204.333 50.6667C204.778 50.2222 203.722 50.2778 203.667 50.3333z"/>
<path style="fill:#fe9c42; stroke:none;" d="M205 50L208 53C208.951 50.4934 207.348 50.2942 205 50z"/>
<path style="fill:#fddabe; stroke:none;" d="M198 51C199.248 51.6848 199.549 51.7488 201 52C199.752 51.3152 199.452 51.2512 198 51z"/>
<path style="fill:#feab63; stroke:none;" d="M201.667 51.3333C201.222 51.7778 202.278 51.7222 202.333 51.6667C202.778 51.2223 201.722 51.2777 201.667 51.3333z"/>
<path style="fill:#fe8517; stroke:none;" d="M192 57C195.846 55.7487 200.14 53.3434 204 55C206.481 53.9827 207.264 53.5615 208 51C202.755 51.2686 194.886 52.2825 192 57z"/>
<path style="fill:#fe9f46; stroke:none;" d="M95 52C95.6836 53.58 95.8048 53.7772 97 55C96.3164 53.42 96.1952 53.2228 95 52z"/>
<path style="fill:#ffddc0; stroke:none;" d="M194.667 52.3333C194.222 52.7778 195.278 52.7222 195.333 52.6667C195.778 52.2222 194.722 52.2778 194.667 52.3333z"/>
<path style="fill:#fec496; stroke:none;" d="M196 52C197.248 52.6848 197.549 52.7488 199 53C197.752 52.3152 197.452 52.2512 196 52z"/>
<path style="fill:#fea659; stroke:none;" d="M199.667 52.3333C199.222 52.7778 200.278 52.7222 200.333 52.6667C200.778 52.2222 199.722 52.2778 199.667 52.3333z"/>
<path style="fill:#fee8d0; stroke:none;" d="M208 55C209.457 53.8966 209.897 53.4566 211 52C208.876 52.8993 208.899 52.8764 208 55z"/>
<path style="fill:#fdd5a6; stroke:none;" d="M90 53C90.9357 54.9485 91.3924 55.5502 93 57C92.0643 55.0514 91.6076 54.4498 90 53z"/>
<path style="fill:#fee4c8; stroke:none;" d="M139 53C140.248 53.6848 140.549 53.7488 142 54C140.752 53.3152 140.452 53.2512 139 53z"/>
<path style="fill:#fdcba4; stroke:none;" d="M181 60C185.603 60.9816 191.123 56.3593 194 53C189.313 54.7062 185.256 57.4374 181 60z"/>
<path style="fill:#feab69; stroke:none;" d="M194.667 53.3333C194.222 53.7778 195.278 53.7222 195.333 53.6667C195.778 53.2222 194.722 53.2778 194.667 53.3333z"/>
<path style="fill:#fe7f08; stroke:none;" d="M179 68C185.466 67.1244 190.617 62.7069 196.004 59.3225C199.077 57.3916 202.113 56.1292 204 53C194.881 55.1096 183.278 59.0162 179 68z"/>
<path style="fill:#fdb66b; stroke:none;" d="M203 57L208 55C205.469 54.2899 204.484 54.8686 203 57z"/>
<path style="fill:#fe9a3f; stroke:none;" d="M97 55C97.9357 56.9485 98.3924 57.5502 100 59C99.0643 57.0514 98.6076 56.4498 97 55z"/>
<path style="fill:#fce2c6; stroke:none;" d="M204 56C205.809 56.5743 206.069 56.4653 208 56C206.341 55.5935 205.758 55.6914 204 56z"/>
<path style="fill:#feaa50; stroke:none;" d="M93 56C93.7982 59.1116 95.1742 61.3522 97 64C97.5016 60.5506 95.464 58.2842 93 56z"/>
<path style="fill:#fea04f; stroke:none;" d="M188 57C189.809 57.5743 190.069 57.4653 192 57C190.341 56.5935 189.758 56.6914 188 57z"/>
<path style="fill:#fe9f41; stroke:none;" d="M190 64C194.588 62.0797 198.666 59.4035 203 57C198.336 55.7621 192.453 60.1759 190 64z"/>
<path style="fill:#fec28f; stroke:none;" d="M100 57C100.684 58.58 100.805 58.7772 102 60C101.316 58.42 101.195 58.2228 100 57z"/>
<path style="fill:#fec585; stroke:none;" d="M201.667 57.3333C201.222 57.7778 202.278 57.7222 202.333 57.6667C202.778 57.2223 201.722 57.2777 201.667 57.3333z"/>
<path style="fill:#fe922c; stroke:none;" d="M178 69L182 69C180.752 68.3152 180.452 68.2512 179 68C181.932 63.9241 185.364 60.9631 190 59C184.074 57.1245 178.824 63.6769 178 69z"/>
<path style="fill:#fedab0; stroke:none;" d="M200.667 58.3333C200.222 58.7778 201.278 58.7222 201.333 58.6667C201.778 58.2222 200.722 58.2777 200.667 58.3333z"/>
<path style="fill:#fee3c4; stroke:none;" d="M93 59C93.9357 60.9486 94.3924 61.5502 96 63C95.0643 61.0514 94.6076 60.4498 93 59z"/>
<path style="fill:#ff9c41; stroke:none;" d="M100 59C100.684 60.58 100.805 60.7772 102 62C101.316 60.42 101.195 60.2228 100 59z"/>
<path style="fill:#fde9d5; stroke:none;" d="M197 61C198.58 60.3164 198.777 60.1952 200 59C198.42 59.6836 198.223 59.8048 197 61z"/>
<path style="fill:#fec58e; stroke:none;" d="M102 60C102.684 61.58 102.805 61.7772 104 63C103.316 61.42 103.195 61.2228 102 60z"/>
<path style="fill:#feb979; stroke:none;" d="M179 64C180.457 62.8966 180.897 62.4567 182 61C179.876 61.8993 179.899 61.8764 179 64z"/>
<path style="fill:#fedbb4; stroke:none;" d="M191 63C193.462 63.6968 194.665 63.1104 197 62C194.726 61.5913 193.219 62.2117 191 63z"/>
<path style="fill:#fe9837; stroke:none;" d="M102 62C101.101 64.1236 101.124 64.1007 99 65C100.506 65.683 101.315 65.8259 103 66C102.826 64.3148 102.683 63.506 102 62z"/>
<path style="fill:#fed7a9; stroke:none;" d="M104 62C103.066 65.1266 102.127 66.0658 99 67C102.995 68.5178 105.518 65.9951 104 62z"/>
<path style="fill:#fde1bb; stroke:none;" d="M96 63C96.9357 64.9486 97.3924 65.5502 99 67C98.0643 65.0514 97.6076 64.4498 96 63z"/>
<path style="fill:#feae64; stroke:none;" d="M103 63L103 66C103.696 64.4463 103.696 64.5537 103 63z"/>
<path style="fill:#fdc99b; stroke:none;" d="M178 63C176.51 65.7803 176.089 67.8484 176 71L180 71C178.752 70.3152 178.452 70.2512 177 70C177.483 67.5886 178.31 65.3997 178 63z"/>
<path style="fill:#fdb76c; stroke:none;" d="M186 67L191 65C188.469 64.2899 187.484 64.8686 186 67z"/>
<path style="fill:#feb469; stroke:none;" d="M99 66C100.506 66.683 101.315 66.8259 103 67C101.494 66.317 100.685 66.1741 99 66z"/>
<path style="fill:#fee2c2; stroke:none;" d="M175 66L175 70C175.71 68.2405 175.71 67.7595 175 66z"/>
<path style="fill:#fea453; stroke:none;" d="M177 66L177 70L181 70L177 66z"/>
<path style="fill:#fe962f; stroke:none;" d="M183 68L186 67C184.222 66.0446 183.979 66.2338 183 68z"/>
<path style="fill:#fdc689; stroke:none;" d="M182 68C183.809 68.5743 184.069 68.4653 186 68C184.341 67.5935 183.758 67.6914 182 68z"/>
<path style="fill:#fed9ae; stroke:none;" d="M181.667 69.3333C181.222 69.7778 182.278 69.7222 182.333 69.6667C182.778 69.2222 181.722 69.2778 181.667 69.3333z"/>
<path style="fill:#ffefdc; stroke:none;" d="M122 74C122.562 77.0251 122.936 79.922 123 83C124.195 80.1805 124.282 77.0074 125 74L122 74z"/>
<path style="fill:#fed0a6; stroke:none;" d="M125 74C126.506 74.683 127.315 74.8259 129 75C127.494 74.317 126.685 74.1741 125 74z"/>
<path style="fill:#fef8d9; stroke:none;" d="M129 74C130.506 74.683 131.315 74.8259 133 75C131.494 74.317 130.685 74.1741 129 74z"/>
<path style="fill:#fecc9d; stroke:none;" d="M133 74C135.332 74.9845 137.457 74.9813 140 75C137.668 74.0155 135.543 74.0187 133 74z"/>
<path style="fill:#ffdbbc; stroke:none;" d="M34 75C35.506 75.683 36.3148 75.8259 38 76C36.494 75.317 35.6852 75.1741 34 75z"/>
<path style="fill:#fecd9a; stroke:none;" d="M124 75L124 83C125.161 80.2302 125.161 77.7699 124 75z"/>
<path style="fill:#fea14d; stroke:none;" d="M125 75L125 83L129 83C127.752 82.3152 127.452 82.2512 126 82L126 76L130 76C128.231 75.2211 126.964 75.0876 125 75z"/>
<path style="fill:#fdcd7f; stroke:none;" d="M130 75C131.248 75.6848 131.549 75.7488 133 76C131.752 75.3152 131.452 75.2512 130 75z"/>
<path style="fill:#fea048; stroke:none;" d="M133 75C135.332 75.9845 137.457 75.9813 140 76C137.668 75.0155 135.543 75.0187 133 75z"/>
<path style="fill:#fec188; stroke:none;" d="M140.667 75.3333C140.222 75.7778 141.278 75.7222 141.333 75.6667C141.778 75.2222 140.722 75.2778 140.667 75.3333z"/>
<path style="fill:#fed5af; stroke:none;" d="M142 75C143.248 75.6848 143.549 75.7488 145 76C143.752 75.3152 143.452 75.2512 142 75z"/>
<path style="fill:#ffe3c6; stroke:none;" d="M33 76L33 79C33.6961 77.4463 33.6961 77.5537 33 76z"/>
<path style="fill:#febb7e; stroke:none;" d="M37 79C36.3501 77.7003 36.8532 78 35 78C36.4785 77.0143 36.2032 77 38 77C34.9914 75.3103 32.9114 78.1403 37 79z"/>
<path style="fill:#fed7b7; stroke:none;" d="M38.6667 76.3333C38.2222 76.7778 39.2778 76.7222 39.3333 76.6667C39.7778 76.2222 38.7222 76.2778 38.6667 76.3333z"/>
<path style="fill:#fe871a; stroke:none;" d="M126 76L126 82L130 82C128.752 81.3152 128.452 81.2512 127 81L127 77L140 77C135.783 75.2307 130.541 76 126 76z"/>
<path style="fill:#feb268; stroke:none;" d="M140 76C141.769 76.7789 143.036 76.9124 145 77C143.231 76.2211 141.964 76.0876 140 76z"/>
<path style="fill:#fec792; stroke:none;" d="M145.667 76.3333C145.222 76.7778 146.278 76.7222 146.333 76.6667C146.778 76.2222 145.722 76.2778 145.667 76.3333z"/>
<path style="fill:#ffe4cb; stroke:none;" d="M147.667 76.3333C147.222 76.7778 148.278 76.7222 148.333 76.6667C148.778 76.2222 147.722 76.2778 147.667 76.3333z"/>
<path style="fill:#fea758; stroke:none;" d="M35 77C37.1722 78.984 39.3811 80.6626 42 82L44 78C40.9592 77.1004 38.1691 77.008 35 77z"/>
<path style="fill:#fee2c4; stroke:none;" d="M43.6667 77.3333C43.2223 77.7778 44.2778 77.7222 44.3333 77.6667C44.7778 77.2222 43.7222 77.2778 43.6667 77.3333z"/>
<path style="fill:#fe7b01; stroke:none;" d="M127 77L127 81C130.569 80.5489 134.252 79.5824 137.83 80.4599C153.83 84.3838 156 98.9476 156 113C156 117.215 156.537 121.876 155.529 126C152.311 139.165 141.506 149.543 129 154.111C126.121 155.163 122.976 154.915 120 155.514C111.007 157.325 102.016 158.077 94.0903 152.301C89.8424 149.205 86.973 144.025 84.6304 139.424C81.172 132.633 83 122.465 83 115C78.5945 119.2 75.5395 130.839 77.5594 136.83C79.0359 141.21 82.4671 145.152 84.8758 149.035C86.5968 151.811 87.5751 154.738 90.1443 156.906C97.8583 163.416 108.144 165.817 118 164.896C123.798 164.354 127.968 160.957 133.004 158.474C142.919 153.584 153.086 146.296 159.161 136.91C166.967 124.851 166.693 106.142 160.145 94C156.494 87.2296 153.359 82.0059 146 78.6489C140.235 76.0194 133.182 77 127 77z"/>
<path style="fill:#fe9634; stroke:none;" d="M143 77C144.248 77.6848 144.549 77.7488 146 78C144.752 77.3152 144.452 77.2512 143 77z"/>
<path style="fill:#feb16a; stroke:none;" d="M146 77C148.525 78.9018 151.229 80.4757 154 82C152.098 78.6584 149.732 77.6775 146 77z"/>
<path style="fill:#ffe1c7; stroke:none;" d="M149.667 77.3333C149.222 77.7778 150.278 77.7222 150.333 77.6667C150.778 77.2222 149.722 77.2778 149.667 77.3333z"/>
<path style="fill:#feb576; stroke:none;" d="M44 78C45.2228 79.1951 45.42 79.3164 47 80C45.7772 78.8048 45.58 78.6836 44 78z"/>
<path style="fill:#fe8c23; stroke:none;" d="M146 78C149.129 81.2659 152.888 84.1193 157 86C154.549 81.7646 150.737 79.1256 146 78z"/>
<path style="fill:#ffe6cf; stroke:none;" d="M151.667 78.3333C151.222 78.7778 152.278 78.7222 152.333 78.6667C152.778 78.2222 151.722 78.2778 151.667 78.3333z"/>
<path style="fill:#fdd8b1; stroke:none;" d="M34 79C35.2483 79.6848 35.5485 79.7488 37 80C35.7516 79.3152 35.4516 79.2512 34 79z"/>
<path style="fill:#fcc891; stroke:none;" d="M37 79C38.2228 80.1952 38.42 80.3164 40 81C38.7772 79.8048 38.58 79.6836 37 79z"/>
<path style="fill:#fe9434; stroke:none;" d="M42 79C42.6736 81.2974 42.9653 81.7741 45 83C44.3244 81.1349 43.9043 81.1368 45 80C43.7516 79.3152 43.4516 79.2512 42 79z"/>
<path style="fill:#fed7b0; stroke:none;" d="M47.6667 79.3333C47.2222 79.7778 48.2778 79.7222 48.3333 79.6667C48.7778 79.2222 47.7222 79.2778 47.6667 79.3333z"/>
<path style="fill:#fe8822; stroke:none;" d="M43 80C45.8364 83.5781 48.4672 84.7518 53 85C50.6745 81.4806 47.0425 80.606 43 80z"/>
<path style="fill:#fea14f; stroke:none;" d="M46 80C47.2483 80.6848 47.5485 80.7488 49 81C47.7516 80.3152 47.4516 80.2512 46 80z"/>
<path style="fill:#fecfa0; stroke:none;" d="M49 80C50.2483 80.6848 50.5485 80.7488 52 81C50.7516 80.3152 50.4516 80.2512 49 80z"/>
<path style="fill:#fe871b; stroke:none;" d="M130 80C133.163 81.3274 136.586 80.9996 140 81C136.837 79.6726 133.414 80.0004 130 80z"/>
<path style="fill:#fea959; stroke:none;" d="M49 81C50.458 82.0811 51.2481 82.4361 53 83C51.457 81.7333 50.9522 81.5108 49 81z"/>
<path style="fill:#ffe2ca; stroke:none;" d="M52 81C53.2228 82.1952 53.42 82.3164 55 83C53.7772 81.8048 53.58 81.6836 52 81z"/>
<path style="fill:#fea44f; stroke:none;" d="M130 81C133.163 82.3274 136.586 81.9996 140 82C136.837 80.6726 133.414 81.0004 130 81z"/>
<path style="fill:#fdcb92; stroke:none;" d="M41.6667 82.3333C41.2222 82.7778 42.2778 82.7222 42.3333 82.6667C42.7778 82.2222 41.7222 82.2778 41.6667 82.3333z"/>
<path style="fill:#fed2a9; stroke:none;" d="M129 82C132.432 83.4403 136.3 83 140 83C136.568 81.5597 132.7 82 129 82z"/>
<path style="fill:#feb874; stroke:none;" d="M140.667 82.3333C140.222 82.7778 141.278 82.7222 141.333 82.6667C141.778 82.2222 140.722 82.2778 140.667 82.3333z"/>
<path style="fill:#fea145; stroke:none;" d="M142.667 82.3333C142.222 82.7778 143.278 82.7222 143.333 82.6667C143.778 82.2222 142.722 82.2778 142.667 82.3333z"/>
<path style="fill:#fec796; stroke:none;" d="M154 82C155.223 83.1952 155.42 83.3164 157 84C155.777 82.8049 155.58 82.6836 154 82z"/>
<path style="fill:#fff2e6; stroke:none;" d="M156 82C157.33 83.7525 158.247 84.6697 160 86C158.846 83.7511 158.249 83.1535 156 82z"/>
<path style="fill:#fcddb8; stroke:none;" d="M43 83C44.2228 84.1952 44.42 84.3164 46 85C45.0198 83.2167 45.0924 83.4057 43 83z"/>
<path style="fill:#fec18b; stroke:none;" d="M53.6667 83.3333C53.2222 83.7778 54.2778 83.7222 54.3333 83.6667C54.7778 83.2222 53.7222 83.2778 53.6667 83.3333z"/>
<path style="fill:#ffe7d1; stroke:none;" d="M55.6667 83.3333C55.2222 83.7778 56.2778 83.7222 56.3333 83.6667C56.7778 83.2222 55.7222 83.2778 55.6667 83.3333z"/>
<path style="fill:#fff1e0; stroke:none;" d="M99 91C102.399 88.8016 105.019 86.5511 107 83C102.565 84.1544 99.2151 86.1728 99 91z"/>
<path style="fill:#fec793; stroke:none;" d="M125 83C126.506 83.683 127.315 83.8259 129 84C127.494 83.317 126.685 83.1741 125 83z"/>
<path style="fill:#fde0c3; stroke:none;" d="M141 83C142.949 84.5733 144.588 85.2909 147 86C145.02 84.1158 143.69 83.5307 141 83z"/>
<path style="fill:#feab59; stroke:none;" d="M144.667 83.3333C144.222 83.7778 145.278 83.7222 145.333 83.6667C145.778 83.2222 144.722 83.2778 144.667 83.3333z"/>
<path style="fill:#feb970; stroke:none;" d="M46.6667 84.3333C46.2223 84.7778 47.2778 84.7222 47.3333 84.6667C47.7778 84.2222 46.7222 84.2778 46.6667 84.3333z"/>
<path style="fill:#fe9538; stroke:none;" d="M50 85C52.4601 87.1811 54.9653 88.7389 58 90C56.7912 87.7637 54.8323 86.4224 58 86C55.2611 84.4376 53.0948 84.5647 50 85z"/>
<path style="fill:#fec791; stroke:none;" d="M55 84C56.2483 84.6848 56.5485 84.7488 58 85C56.7516 84.3152 56.4516 84.2512 55 84z"/>
<path style="fill:#feecd8; stroke:none;" d="M125 84C126.506 84.683 127.315 84.8259 129 85C127.494 84.317 126.685 84.1741 125 84z"/>
<path style="fill:#fdae56; stroke:none;" d="M146 84L151 91C151.751 87.2823 149.141 85.5122 146 84z"/>
<path style="fill:#feb576; stroke:none;" d="M157 84C157.684 85.58 157.805 85.7772 159 87C158.316 85.42 158.195 85.2227 157 84z"/>
<path style="fill:#fddbb5; stroke:none;" d="M46.6667 85.3333C46.2222 85.7778 47.2778 85.7222 47.3333 85.6667C47.7778 85.2222 46.7222 85.2778 46.6667 85.3333z"/>
<path style="fill:#fdba72; stroke:none;" d="M48.6667 85.3333C48.2222 85.7778 49.2778 85.7222 49.3333 85.6667C49.7778 85.2222 48.7222 85.2778 48.6667 85.3333z"/>
<path style="fill:#fed8b3; stroke:none;" d="M58.6667 85.3333C58.2222 85.7778 59.2778 85.7222 59.3333 85.6667C59.7778 85.2222 58.7222 85.2778 58.6667 85.3333z"/>
<path style="fill:#fcdcb7; stroke:none;" d="M48.6667 86.3333C48.2222 86.7778 49.2778 86.7222 49.3333 86.6667C49.7778 86.2222 48.7222 86.2778 48.6667 86.3333z"/>
<path style="fill:#fdb76f; stroke:none;" d="M50.6667 86.3333C50.2222 86.7778 51.2778 86.7222 51.3333 86.6667C51.7778 86.2222 50.7222 86.2778 50.6667 86.3333z"/>
<path style="fill:#fe8c24; stroke:none;" d="M55 86C57.1531 88.6013 58.656 89.4928 62 90C60.1843 87.2578 58.2018 86.584 55 86z"/>
<path style="fill:#feb471; stroke:none;" d="M58 86C59.458 87.0811 60.248 87.4361 62 88C60.457 86.7333 59.9522 86.5108 58 86z"/>
<path style="fill:#ffe4ca; stroke:none;" d="M61 86C62.2227 87.1951 62.42 87.3164 64 88C62.7772 86.8048 62.58 86.6836 61 86z"/>
<path style="fill:#ffeddf; stroke:none;" d="M147 86C147.936 87.9485 148.392 88.5502 150 90C149.064 88.0515 148.608 87.4498 147 86z"/>
<path style="fill:#fe9536; stroke:none;" d="M157 86C157.684 87.5801 157.805 87.7772 159 89C158.316 87.42 158.195 87.2228 157 86z"/>
<path style="fill:#fdd7b9; stroke:none;" d="M159 86C159.651 88.4344 160.16 89.2827 162 91C161.251 88.7463 160.656 87.6864 159 86z"/>
<path style="fill:#fcdbb8; stroke:none;" d="M50.6667 87.3333C50.2222 87.7778 51.2778 87.7222 51.3333 87.6667C51.7778 87.2222 50.7222 87.2778 50.6667 87.3333z"/>
<path style="fill:#fcb369; stroke:none;" d="M52.6667 87.3333C52.2222 87.7778 53.2778 87.7222 53.3333 87.6667C53.7778 87.2222 52.7222 87.2778 52.6667 87.3333z"/>
<path style="fill:#fcd7b1; stroke:none;" d="M52 88C53.458 89.0811 54.248 89.4361 56 90C54.4569 88.7333 53.9522 88.5108 52 88z"/>
<path style="fill:#feba7e; stroke:none;" d="M62.6667 88.3333C62.2222 88.7778 63.2778 88.7222 63.3333 88.6667C63.7778 88.2222 62.7222 88.2778 62.6667 88.3333z"/>
<path style="fill:#ffe3c9; stroke:none;" d="M64.6667 88.3333C64.2222 88.7778 65.2778 88.7222 65.3333 88.6667C65.7778 88.2222 64.7222 88.2778 64.6667 88.3333z"/>
<path style="fill:#fe8413; stroke:none;" d="M157 88L161 97C162.272 93.1299 160.22 90.1335 157 88z"/>
<path style="fill:#fe993c; stroke:none;" d="M58 90C61.5733 92.701 65.5549 93.7719 70 94L70 91C65.7852 90.298 62.3067 89.5565 58 90z"/>
<path style="fill:#feb87a; stroke:none;" d="M64 89C65.7505 90.2549 66.8573 90.6137 69 91C67.2495 89.7451 66.1426 89.3863 64 89z"/>
<path style="fill:#ffe4cb; stroke:none;" d="M91 95C91.9725 96.2699 92.7301 97.0275 94 98C96.4361 95.1065 98.1247 92.6921 99 89C95.776 90.4958 93.5526 92.5196 91 95z"/>
<path style="fill:#fed8af; stroke:none;" d="M150.333 89.6667C150.278 89.7222 150.222 90.7778 150.667 90.3333C150.722 90.2777 150.778 89.2223 150.333 89.6667z"/>
<path style="fill:#fecb92; stroke:none;" d="M56.6667 90.3333C56.2223 90.7778 57.2778 90.7222 57.3333 90.6667C57.7778 90.2222 56.7222 90.2778 56.6667 90.3333z"/>
<path style="fill:#fea255; stroke:none;" d="M160.333 90.6667C160.278 90.7222 160.222 91.7778 160.667 91.3333C160.722 91.2777 160.778 90.2222 160.333 90.6667z"/>
<path style="fill:#fdc688; stroke:none;" d="M58.6667 91.3333C58.2222 91.7778 59.2778 91.7222 59.3333 91.6667C59.7778 91.2222 58.7222 91.2778 58.6667 91.3333z"/>
<path style="fill:#fec591; stroke:none;" d="M70 91L70 95C70.7102 93.2405 70.7102 92.7595 70 91z"/>
<path style="fill:#ffe6d2; stroke:none;" d="M71 91L71 95C71.7102 93.2405 71.7102 92.7595 71 91z"/>
<path style="fill:#fff4e9; stroke:none;" d="M150 91C150.339 94.4082 151.58 97.5989 151.896 101C152.72 109.861 152 119.1 152 128C153.441 124.565 153 120.702 153 117C153 108.945 155.054 97.7922 150 91z"/>
<path style="fill:#fec992; stroke:none;" d="M151.333 91.6667C151.278 91.7222 151.222 92.7778 151.667 92.3333C151.722 92.2778 151.778 91.2222 151.333 91.6667z"/>
<path style="fill:#fe9b39; stroke:none;" d="M152 91C152.397 93.3013 152.957 94.9045 154 97C154.444 94.4171 153.631 93.043 152 91z"/>
<path style="fill:#feb47a; stroke:none;" d="M161.333 91.6667C161.278 91.7222 161.222 92.7778 161.667 92.3333C161.722 92.2778 161.778 91.2222 161.333 91.6667z"/>
<path style="fill:#fed8ba; stroke:none;" d="M162.333 91.6667C162.278 91.7222 162.222 92.7778 162.667 92.3333C162.722 92.2778 162.778 91.2222 162.333 91.6667z"/>
<path style="fill:#fddab3; stroke:none;" d="M59.6667 92.3333C59.2223 92.7778 60.2778 92.7222 60.3333 92.6667C60.7778 92.2222 59.7222 92.2778 59.6667 92.3333z"/>
<path style="fill:#fcbd7b; stroke:none;" d="M61.6667 92.3333C61.2223 92.7777 62.2778 92.7222 62.3333 92.6667C62.7778 92.2222 61.7222 92.2778 61.6667 92.3333z"/>
<path style="fill:#fac58e; stroke:none;" d="M63.6667 93.3333C63.2222 93.7778 64.2778 93.7222 64.3333 93.6667C64.7778 93.2222 63.7222 93.2778 63.6667 93.3333z"/>
<path style="fill:#fdca9f; stroke:none;" d="M162 93L163 98C163.651 95.7659 163.318 94.9261 162 93z"/>
<path style="fill:#fbdcb6; stroke:none;" d="M64.6667 94.3333C64.2222 94.7778 65.2778 94.7222 65.3333 94.6667C65.7778 94.2222 64.7222 94.2778 64.6667 94.3333z"/>
<path style="fill:#febe72; stroke:none;" d="M66 94C67.506 94.683 68.3148 94.8259 70 95C68.494 94.317 67.6852 94.1741 66 94z"/>
<path style="fill:#fdcc95; stroke:none;" d="M152.333 94.6667C152.278 94.7222 152.222 95.7778 152.667 95.3333C152.722 95.2778 152.778 94.2223 152.333 94.6667z"/>
<path style="fill:#fedcaf; stroke:none;" d="M66 95C67.769 95.7789 69.0359 95.9124 71 96C69.231 95.2211 67.9641 95.0876 66 95z"/>
<path style="fill:#fce9d9; stroke:none;" d="M164 95L164 98C164.696 96.4463 164.696 96.5537 164 95z"/>
<path style="fill:#ffefdd; stroke:none;" d="M201 95C203.613 96.0977 206.165 95.9928 209 96C206.387 94.9023 203.835 95.0072 201 95z"/>
<path style="fill:#ffd7b5; stroke:none;" d="M79 114C83.1824 111.589 85.3454 105.956 88.0556 102.009C89.188 100.36 90.2558 98.3023 92 99C93.4599 95.1555 89.2012 97.3117 87.7407 99.0833C84.2521 103.315 80.7712 108.83 79 114z"/>
<path style="fill:#fdc07f; stroke:none;" d="M153.333 96.6667C153.278 96.7222 153.222 97.7778 153.667 97.3333C153.722 97.2777 153.778 96.2223 153.333 96.6667z"/>
<path style="fill:#fe9b43; stroke:none;" d="M162.333 96.6667C162.278 96.7222 162.222 97.7778 162.667 97.3333C162.722 97.2778 162.778 96.2222 162.333 96.6667z"/>
<path style="fill:#fed6b2; stroke:none;" d="M197 97C199.163 97.6756 200.732 97.387 203 97C200.761 96.1892 199.353 96.4712 197 97z"/>
<path style="fill:#fec88e; stroke:none;" d="M203 96C205.052 96.8742 206.747 96.9528 209 97C206.948 96.1257 205.253 96.0472 203 96z"/>
<path style="fill:#fedbb7; stroke:none;" d="M209.667 96.3333C209.222 96.7778 210.278 96.7222 210.333 96.6667C210.778 96.2222 209.722 96.2778 209.667 96.3333z"/>
<path style="fill:#fec68d; stroke:none;" d="M91 97C89.3847 99.5954 88.8558 100.958 89 104C90.6608 101.664 91.687 99.8131 91 97z"/>
<path style="fill:#feb468; stroke:none;" d="M154 97C154 109.154 154.715 121.124 152 133C157.359 126.837 155 114.728 155 107C155 103.581 155.328 100.166 154 97z"/>
<path style="fill:#fea145; stroke:none;" d="M199 98C203.712 99.1318 210.014 98.7859 215 99C210.185 96.44 204.144 96.4794 199 98z"/>
<path style="fill:#fecea0; stroke:none;" d="M211 97C213.276 98.5067 215.158 99.9696 217 102L218 98C215.623 97.428 213.442 97.1095 211 97z"/>
<path style="fill:#fed8af; stroke:none;" d="M153 98L153 128C154.328 124.834 154 121.419 154 118C154 111.846 155.395 103.707 153 98z"/>
<path style="fill:#fe9c4a; stroke:none;" d="M163.333 98.6667C163.278 98.7222 163.222 99.7778 163.667 99.3333C163.722 99.2777 163.778 98.2223 163.333 98.6667z"/>
<path style="fill:#febe88; stroke:none;" d="M164.333 98.6667C164.278 98.7222 164.222 99.7778 164.667 99.3333C164.722 99.2777 164.778 98.2223 164.333 98.6667z"/>
<path style="fill:#ffebd9; stroke:none;" d="M192 105C190.861 103.985 190.388 103.691 189 103C190.906 100.677 192.108 99.806 195 99C189.794 97.0454 185.94 102.981 192 105z"/>
<path style="fill:#fec698; stroke:none;" d="M195.667 98.3333C195.222 98.7778 196.278 98.7222 196.333 98.6667C196.778 98.2222 195.722 98.2778 195.667 98.3333z"/>
<path style="fill:#feaa65; stroke:none;" d="M197.667 98.3333C197.222 98.7778 198.278 98.7222 198.333 98.6667C198.778 98.2222 197.722 98.2778 197.667 98.3333z"/>
<path style="fill:#fe871b; stroke:none;" d="M201 98C203.89 99.2129 206.874 98.9983 210 99C207.11 97.7871 204.126 98.0017 201 98z"/>
<path style="fill:#fe902c; stroke:none;" d="M155 99L155 128C157.292 122.538 156 114.887 156 109C156 105.581 156.328 102.166 155 99z"/>
<path style="fill:#fde0c7; stroke:none;" d="M165 99L166 103C166.393 101.076 166.146 100.64 165 99z"/>
<path style="fill:#fec194; stroke:none;" d="M191 99C192.248 99.6848 192.548 99.7488 194 100C192.752 99.3152 192.452 99.2512 191 99z"/>
<path style="fill:#fea963; stroke:none;" d="M194 99C195.248 99.6848 195.548 99.7488 197 100C195.752 99.3152 195.452 99.2512 194 99z"/>
<path style="fill:#fe7a06; stroke:none;" d="M193 101C196.449 105.531 207.647 102.608 212 100C205.295 98.018 199.542 99.5418 193 101z"/>
<path style="fill:#fe9331; stroke:none;" d="M211 99C211 101.14 209.79 101.061 209 103L216 102L216 99L211 99z"/>
<path style="fill:#fe9e4c; stroke:none;" d="M164.333 100.667C164.278 100.722 164.222 101.778 164.667 101.333C164.722 101.278 164.778 100.222 164.333 100.667z"/>
<path style="fill:#feb06e; stroke:none;" d="M190 100C190.307 102.123 190.382 102.686 192 104L192 100L190 100z"/>
<path style="fill:#fe902a; stroke:none;" d="M191 101L191 103C192.801 103.562 194.122 103.824 196 104L193 101L197 101C194.677 100.079 193.419 100.313 191 101z"/>
<path style="fill:#ffd2a6; stroke:none;" d="M189.333 101.667C189.278 101.722 189.222 102.778 189.667 102.333C189.722 102.278 189.778 101.222 189.333 101.667z"/>
<path style="fill:#fead5e; stroke:none;" d="M87 102C86.6372 104.232 86.6372 105.768 87 108C88.416 105.958 88.7451 104.489 89 102L87 102z"/>
<path style="fill:#fe8213; stroke:none;" d="M164 102C164.398 107.045 164.999 111.918 165 117C166.882 112.514 166.501 106.174 164 102z"/>
<path style="fill:#feab5f; stroke:none;" d="M165 102L165 105C165.696 103.446 165.696 103.554 165 102z"/>
<path style="fill:#fe881e; stroke:none;" d="M200 102C202.89 103.213 205.874 102.998 209 103C206.11 101.787 203.126 102.002 200 102z"/>
<path style="fill:#feb76f; stroke:none;" d="M211 102C212.248 102.685 212.549 102.749 214 103C212.752 102.315 212.452 102.251 211 102z"/>
<path style="fill:#fedfb9; stroke:none;" d="M214.667 102.333C214.222 102.778 215.278 102.722 215.333 102.667C215.778 102.222 214.722 102.278 214.667 102.333z"/>
<path style="fill:#fdc590; stroke:none;" d="M166.333 103.667C166.278 103.722 166.222 104.778 166.667 104.333C166.722 104.278 166.778 103.222 166.333 103.667z"/>
<path style="fill:#feedda; stroke:none;" d="M167 103L167 106C167.696 104.446 167.696 104.554 167 103z"/>
<path style="fill:#fca857; stroke:none;" d="M200 103C202.89 104.213 205.874 103.998 209 104C206.11 102.787 203.126 103.002 200 103z"/>
<path style="fill:#fdcf9d; stroke:none;" d="M209.667 103.333C209.222 103.778 210.278 103.722 210.333 103.667C210.778 103.222 209.722 103.278 209.667 103.333z"/>
<path style="fill:#fcca92; stroke:none;" d="M192.667 104.333C192.222 104.778 193.278 104.722 193.333 104.667C193.778 104.222 192.722 104.278 192.667 104.333z"/>
<path style="fill:#fdb261; stroke:none;" d="M194 104C195.769 104.779 197.036 104.912 199 105C197.231 104.221 195.964 104.088 194 104z"/>
<path style="fill:#fddec0; stroke:none;" d="M199 104C202.163 105.327 205.586 105 209 105C205.837 103.673 202.414 104 199 104z"/>
<path style="fill:#fd9d40; stroke:none;" d="M166 105L166 116C167.431 112.59 167.431 108.41 166 105z"/>
<path style="fill:#feebcf; stroke:none;" d="M194 105C195.769 105.779 197.036 105.912 199 106C197.231 105.221 195.964 105.088 194 105z"/>
<path style="fill:#fd9f43; stroke:none;" d="M83 110C84.8651 109.324 84.8632 108.904 86 110C86.683 108.494 86.8259 107.685 87 106C84.7511 107.154 84.1535 107.751 83 110z"/>
<path style="fill:#fed9ae; stroke:none;" d="M88.3333 106.667C88.2778 106.722 88.2222 107.778 88.6667 107.333C88.7223 107.278 88.7778 106.222 88.3333 106.667z"/>
<path style="fill:#fcc38f; stroke:none;" d="M167 106L167 116C168.346 112.793 168.346 109.207 167 106z"/>
<path style="fill:#fd9630; stroke:none;" d="M85 108C83.9435 110.242 83.8185 110.577 84 113C85.3182 111.074 85.6514 110.234 85 108z"/>
<path style="fill:#fed19f; stroke:none;" d="M87.3333 108.667C87.2778 108.722 87.2222 109.778 87.6667 109.333C87.7223 109.278 87.7778 108.222 87.3333 108.667z"/>
<path style="fill:#fea04a; stroke:none;" d="M82 110L81 114C82.303 112.332 82.553 112.008 82 110z"/>
<path style="fill:#feca9a; stroke:none;" d="M86 110C83.385 118.847 85 129.797 85 139C87.4122 133.251 85.9321 125.193 86.0039 119C86.0389 115.975 86.6989 112.91 86 110z"/>
<path style="fill:#fe8618; stroke:none;" d="M83 112C81.1333 114.086 80.4343 115.246 80 118C81.0154 116.861 81.3087 116.388 82 115C84.1987 122.438 83 131.271 83 139C85.5408 132.945 85.5408 118.055 83 112z"/>
<path style="fill:#fff3e6; stroke:none;" d="M86 112L86 139C88.5408 132.945 88.5408 118.055 86 112z"/>
<path style="fill:#fea64b; stroke:none;" d="M84 113L84 139C86.477 133.097 86.477 118.903 84 113z"/>
<path style="fill:#ffe3c7; stroke:none;" d="M78.3333 114.667C78.2778 114.722 78.2223 115.778 78.6667 115.333C78.7222 115.278 78.7778 114.222 78.3333 114.667z"/>
<path style="fill:#fec189; stroke:none;" d="M79.3333 114.667C79.2778 114.722 79.2222 115.778 79.6667 115.333C79.7222 115.278 79.7778 114.222 79.3333 114.667z"/>
<path style="fill:#fecb97; stroke:none;" d="M78.3333 116.667C78.2778 116.722 78.2223 117.778 78.6667 117.333C78.7222 117.278 78.7778 116.222 78.3333 116.667z"/>
<path style="fill:#feb66f; stroke:none;" d="M79 116L78 120C79.303 118.332 79.553 118.008 79 116z"/>
<path style="fill:#feb770; stroke:none;" d="M166 116C165.1 119.041 165.008 121.831 165 125C166.217 122.179 166.717 118.988 166 116z"/>
<path style="fill:#fee8d1; stroke:none;" d="M77.3333 117.667C77.2778 117.722 77.2222 118.778 77.6667 118.333C77.7222 118.278 77.7778 117.222 77.3333 117.667z"/>
<path style="fill:#fe932c; stroke:none;" d="M164 117L164 125C165.161 122.23 165.161 119.77 164 117z"/>
<path style="fill:#fdddbc; stroke:none;" d="M166 118L166 123C166.83 120.969 166.83 120.03 166 118z"/>
<path style="fill:#fecea2; stroke:none;" d="M77 119C76.8201 122.511 75.8949 125.618 75 129C77.7651 126.049 78.5785 122.799 77 119z"/>
<path style="fill:#fe9f4b; stroke:none;" d="M78 120C77.8826 122.73 77.5008 125.314 77 128C78.9932 125.369 79.275 123.07 78 120z"/>
<path style="fill:#fff0e0; stroke:none;" d="M76 121L76 125C76.7102 123.241 76.7102 122.759 76 121z"/>
<path style="fill:#fff4eb; stroke:none;" d="M47 124C49.8897 125.213 52.8741 124.998 56 125C53.1103 123.787 50.1259 124.002 47 124z"/>
<path style="fill:#fed5ac; stroke:none;" d="M47 125C50.0914 126.309 53.6719 126.382 57 127C53.9602 124.697 50.7325 125.003 47 125z"/>
<path style="fill:#fe9937; stroke:none;" d="M163 125C162.158 127.994 161.416 130.917 161 134C162.964 131.243 164 128.294 163 125z"/>
<path style="fill:#feb163; stroke:none;" d="M164 125L164 128C164.696 126.446 164.696 126.554 164 125z"/>
<path style="fill:#fdd7b1; stroke:none;" d="M165.333 125.667C165.278 125.722 165.222 126.778 165.667 126.333C165.722 126.278 165.778 125.222 165.333 125.667z"/>
<path style="fill:#fee8d4; stroke:none;" d="M180 132C182.486 128.365 184.537 126.599 189 126C183.863 123.925 180.41 126.818 180 132z"/>
<path style="fill:#ffebd7; stroke:none;" d="M37 127C39.3934 127.741 41.4926 127.302 44 127C41.4769 126.01 39.6417 126.383 37 127z"/>
<path style="fill:#fedab2; stroke:none;" d="M44.6667 126.333C44.2222 126.778 45.2778 126.722 45.3333 126.667C45.7777 126.222 44.7223 126.278 44.6667 126.333z"/>
<path style="fill:#feaa5d; stroke:none;" d="M45 127C48.1714 127.762 51.6945 127.027 55 127C51.6512 125.595 48.4359 125.985 45 127z"/>
<path style="fill:#fec690; stroke:none;" d="M184 126C185.769 126.779 187.036 126.912 189 127C187.231 126.221 185.964 126.088 184 126z"/>
<path style="fill:#ffe4ca; stroke:none;" d="M189 126C191.052 126.874 192.747 126.953 195 127C192.948 126.126 191.253 126.047 189 126z"/>
<path style="fill:#febd7e; stroke:none;" d="M40 127C41.769 127.779 43.0359 127.912 45 128C43.231 127.221 41.9641 127.088 40 127z"/>
<path style="fill:#fe8e23; stroke:none;" d="M47 127C49.6127 128.098 52.1645 127.993 55 128L55 132L57 132L57 127L47 127z"/>
<path style="fill:#feb470; stroke:none;" d="M57 127L57 131C57.7102 129.241 57.7102 128.759 57 127z"/>
<path style="fill:#ffdcbf; stroke:none;" d="M58 127L58 131C58.7102 129.241 58.7102 128.759 58 127z"/>
<path style="fill:#feb16c; stroke:none;" d="M183 127C182.438 128.801 182.176 130.122 182 132L185 127L183 127z"/>
<path style="fill:#fea452; stroke:none;" d="M185 127C186.506 127.683 187.315 127.826 189 128C187.494 127.317 186.685 127.174 185 127z"/>
<path style="fill:#fec082; stroke:none;" d="M189 127C191.613 128.098 194.165 127.993 197 128C194.387 126.902 191.836 127.007 189 127z"/>
<path style="fill:#ffedde; stroke:none;" d="M197 127C198.506 127.683 199.315 127.826 201 128C199.494 127.317 198.685 127.174 197 127z"/>
<path style="fill:#fed7b3; stroke:none;" d="M34 128C35.2484 128.685 35.5484 128.749 37 129C35.7516 128.315 35.4516 128.251 34 128z"/>
<path style="fill:#feb97c; stroke:none;" d="M37 128C38.2484 128.685 38.5484 128.749 40 129C38.7517 128.315 38.4516 128.251 37 128z"/>
<path style="fill:#fe9427; stroke:none;" d="M25 136C30.437 137.607 36.3582 137 42 137C37.5286 135.124 31.8166 136 27 136C31.3712 131.218 38.7595 129.917 45 129C39.0845 126.697 27.9116 130.435 25 136z"/>
<path style="fill:#fe7901; stroke:none;" d="M27 136C34.6 136 40.9167 136.112 48.0887 133.679C52.0545 132.333 54.2372 132.571 55 128C47.045 128.001 31.5607 128.464 27 136z"/>
<path style="fill:#feecd5; stroke:none;" d="M74 128L74 134C74.9511 131.715 74.9511 130.285 74 128z"/>
<path style="fill:#fe8a1f; stroke:none;" d="M76 128L76 135C77.0094 132.767 77.4052 130.396 78 128L76 128z"/>
<path style="fill:#fed3af; stroke:none;" d="M152 128L146 139C149.444 136.32 153.274 132.642 152 128z"/>
<path style="fill:#feca94; stroke:none;" d="M163 128L161 137C163.234 134.19 164.33 131.443 163 128z"/>
<path style="fill:#fddec1; stroke:none;" d="M164.333 128.667C164.278 128.722 164.222 129.778 164.667 129.333C164.722 129.278 164.778 128.222 164.333 128.667z"/>
<path style="fill:#fed1a8; stroke:none;" d="M181 128L181 132C181.71 130.241 181.71 129.759 181 128z"/>
<path style="fill:#fe993a; stroke:none;" d="M184 128C187.959 129.661 192.737 129 197 129C193.041 127.339 188.263 128 184 128z"/>
<path style="fill:#feb36b; stroke:none;" d="M197.667 128.333C197.222 128.778 198.278 128.722 198.333 128.667C198.778 128.222 197.722 128.278 197.667 128.333z"/>
<path style="fill:#fed7b1; stroke:none;" d="M199 128C200.506 128.683 201.315 128.826 203 129C201.494 128.317 200.685 128.174 199 128z"/>
<path style="fill:#fee8d3; stroke:none;" d="M26 130C27.9433 130.622 28.949 130.436 31 130C29.0567 129.378 28.051 129.564 26 130z"/>
<path style="fill:#febf8a; stroke:none;" d="M29 130C30.9433 130.622 31.949 130.436 34 130C32.0567 129.378 31.051 129.564 29 130z"/>
<path style="fill:#fea75b; stroke:none;" d="M34 129C35.2484 129.685 35.5484 129.749 37 130C35.7516 129.315 35.4516 129.251 34 129z"/>
<path style="fill:#feac5e; stroke:none;" d="M75 129L75 134C75.8299 131.969 75.8299 131.03 75 129z"/>
<path style="fill:#fe9334; stroke:none;" d="M183 129C183.406 131.092 183.217 131.02 185 132C184.309 130.612 184.015 130.139 183 129z"/>
<path style="fill:#fe7901; stroke:none;" d="M184 129C188.332 136.846 197.386 135.914 205 137.263C210.644 138.263 215.111 139.996 221 140L221 138C214.632 137.361 210.494 133.536 204.715 131.549C198.699 129.481 190.351 129.273 184 129z"/>
<path style="fill:#fe8311; stroke:none;" d="M189 129C193.148 130.757 198.492 130.907 203 131C198.66 128.693 193.809 129.001 189 129z"/>
<path style="fill:#fea24d; stroke:none;" d="M199 129C200.506 129.683 201.315 129.826 203 130C201.494 129.317 200.685 129.174 199 129z"/>
<path style="fill:#fec793; stroke:none;" d="M203.667 129.333C203.222 129.778 204.278 129.722 204.333 129.667C204.778 129.222 203.722 129.278 203.667 129.333z"/>
<path style="fill:#fea657; stroke:none;" d="M203.667 130.333C203.222 130.778 204.278 130.722 204.333 130.667C204.778 130.222 203.722 130.278 203.667 130.333z"/>
<path style="fill:#feb672; stroke:none;" d="M205 130C206.223 131.195 206.42 131.316 208 132C206.777 130.805 206.58 130.684 205 130z"/>
<path style="fill:#ffe2c7; stroke:none;" d="M207.667 130.333C207.222 130.778 208.278 130.722 208.333 130.667C208.778 130.222 207.722 130.278 207.667 130.333z"/>
<path style="fill:#fed7b4; stroke:none;" d="M24 131C23.3562 133.106 23.0941 134.795 23 137L26 131L24 131z"/>
<path style="fill:#fec18f; stroke:none;" d="M26 131C27.2483 131.685 27.5484 131.749 29 132C27.7516 131.315 27.4516 131.251 26 131z"/>
<path style="fill:#fee6c7; stroke:none;" d="M57 131L54 135C56.1435 133.869 57.0986 133.432 57 131z"/>
<path style="fill:#fecfa2; stroke:none;" d="M208 131C209.248 131.685 209.548 131.749 211 132C209.752 131.315 209.452 131.251 208 131z"/>
<path style="fill:#feaf66; stroke:none;" d="M25 132C24.3854 134.462 24.105 135.318 26 137C26.1664 135.127 26.4455 133.804 27 132L25 132z"/>
<path style="fill:#fea03f; stroke:none;" d="M52 133C53.8092 133.574 54.0688 133.465 56 133C54.3407 132.594 53.7582 132.691 52 133z"/>
<path style="fill:#fdead5; stroke:none;" d="M182 132C182.899 134.124 182.876 134.101 185 135C183.897 133.543 183.457 133.103 182 132z"/>
<path style="fill:#feab59; stroke:none;" d="M183 132C184.45 133.608 185.051 134.064 187 135C185.55 133.392 184.949 132.936 183 132z"/>
<path style="fill:#fe902e; stroke:none;" d="M185 132C188.542 135.937 192.929 137.003 198 138C194.46 135.172 189.313 133.471 185 132z"/>
<path style="fill:#fe8b22; stroke:none;" d="M206 132C207.543 133.267 208.048 133.489 210 134C208.457 132.733 207.952 132.511 206 132z"/>
<path style="fill:#feac60; stroke:none;" d="M209 132C210.223 133.195 210.42 133.316 212 134C210.777 132.805 210.58 132.684 209 132z"/>
<path style="fill:#fec995; stroke:none;" d="M211 132C212.543 133.267 213.048 133.489 215 134C213.542 132.919 212.752 132.564 211 132z"/>
<path style="fill:#fef0e0; stroke:none;" d="M22 133L22 137C22.7102 135.241 22.7102 134.759 22 133z"/>
<path style="fill:#fe8920; stroke:none;" d="M45 134C47.3934 134.741 49.4926 134.302 52 134C49.4769 133.01 47.6417 133.383 45 134z"/>
<path style="fill:#fe9b42; stroke:none;" d="M151 133L151 135C152.635 134.455 152.455 134.635 153 133L151 133z"/>
<path style="fill:#fea147; stroke:none;" d="M48 134C49.2484 134.685 49.5484 134.749 51 135C49.7517 134.315 49.4516 134.251 48 134z"/>
<path style="fill:#feba72; stroke:none;" d="M51 134C52.2484 134.685 52.5484 134.749 54 135C52.7517 134.315 52.4516 134.251 51 134z"/>
<path style="fill:#fed59f; stroke:none;" d="M75.3333 134.667C75.2778 134.722 75.2222 135.778 75.6667 135.333C75.7222 135.278 75.7778 134.222 75.3333 134.667z"/>
<path style="fill:#fe9e3e; stroke:none;" d="M160 134L160 137C160.696 135.446 160.696 135.554 160 134z"/>
<path style="fill:#fe861b; stroke:none;" d="M210 134C212.688 136.417 215.449 137.386 219 138C216.283 135.624 213.507 134.755 210 134z"/>
<path style="fill:#fea858; stroke:none;" d="M212 134C213.248 134.685 213.548 134.749 215 135C213.752 134.315 213.452 134.251 212 134z"/>
<path style="fill:#fecc9a; stroke:none;" d="M215.667 134.333C215.222 134.778 216.278 134.722 216.333 134.667C216.778 134.222 215.722 134.278 215.667 134.333z"/>
<path style="fill:#fea552; stroke:none;" d="M45 135C46.2484 135.685 46.5484 135.749 48 136C46.7517 135.315 46.4516 135.251 45 135z"/>
<path style="fill:#fdc58c; stroke:none;" d="M48.6667 135.333C48.2222 135.778 49.2778 135.722 49.3333 135.667C49.7777 135.222 48.7222 135.278 48.6667 135.333z"/>
<path style="fill:#fed9b2; stroke:none;" d="M50 135C51.2483 135.685 51.5484 135.749 53 136C51.7517 135.315 51.4516 135.251 50 135z"/>
<path style="fill:#febb68; stroke:none;" d="M76.3333 135.667C76.2778 135.722 76.2222 136.778 76.6667 136.333C76.7222 136.278 76.7778 135.222 76.3333 135.667z"/>
<path style="fill:#fe9639; stroke:none;" d="M149 135C146.041 140.105 140.898 143.068 138 148C143.929 145.046 148.146 140.994 151 135L149 135z"/>
<path style="fill:#fec689; stroke:none;" d="M186.667 135.333C186.222 135.778 187.278 135.722 187.333 135.667C187.778 135.222 186.722 135.278 186.667 135.333z"/>
<path style="fill:#fea44c; stroke:none;" d="M188.667 135.333C188.222 135.778 189.278 135.722 189.333 135.667C189.778 135.222 188.722 135.278 188.667 135.333z"/>
<path style="fill:#fea455; stroke:none;" d="M216 135C217.98 136.884 219.31 137.469 222 138C220.051 136.427 218.412 135.709 216 135z"/>
<path style="fill:#fed4ad; stroke:none;" d="M218.667 135.333C218.222 135.778 219.278 135.722 219.333 135.667C219.778 135.222 218.722 135.278 218.667 135.333z"/>
<path style="fill:#feb161; stroke:none;" d="M42.6667 136.333C42.2222 136.778 43.2778 136.722 43.3333 136.667C43.7778 136.222 42.7222 136.278 42.6667 136.333z"/>
<path style="fill:#fec58b; stroke:none;" d="M44.6667 136.333C44.2222 136.778 45.2778 136.722 45.3333 136.667C45.7778 136.222 44.7222 136.278 44.6667 136.333z"/>
<path style="fill:#fed7b1; stroke:none;" d="M46.6667 136.333C46.2222 136.778 47.2778 136.722 47.3333 136.667C47.7778 136.222 46.7222 136.278 46.6667 136.333z"/>
<path style="fill:#fed9ae; stroke:none;" d="M187.667 136.333C187.222 136.778 188.278 136.722 188.333 136.667C188.778 136.222 187.722 136.278 187.667 136.333z"/>
<path style="fill:#feba78; stroke:none;" d="M189.667 136.333C189.222 136.778 190.278 136.722 190.333 136.667C190.778 136.222 189.722 136.278 189.667 136.333z"/>
<path style="fill:#fecc9d; stroke:none;" d="M220.667 136.333C220.222 136.778 221.278 136.722 221.333 136.667C221.778 136.222 220.722 136.278 220.667 136.333z"/>
<path style="fill:#fbc98b; stroke:none;" d="M24 137C27.1633 138.327 30.5856 138 34 138C30.8367 136.673 27.4144 137 24 137z"/>
<path style="fill:#fec274; stroke:none;" d="M34 137C36.6127 138.098 39.1645 137.993 42 138C39.3873 136.902 36.8355 137.007 34 137z"/>
<path style="fill:#feddb6; stroke:none;" d="M42.6667 137.333C42.2222 137.778 43.2778 137.722 43.3333 137.667C43.7778 137.222 42.7222 137.278 42.6667 137.333z"/>
<path style="fill:#fddcae; stroke:none;" d="M76.3333 137.667C76.2778 137.722 76.2222 138.778 76.6667 138.333C76.7222 138.278 76.7778 137.222 76.3333 137.667z"/>
<path style="fill:#fbc489; stroke:none;" d="M156 143C158.08 141.158 159.509 139.35 161 137C158.082 138.517 157.078 139.893 156 143z"/>
<path style="fill:#feecd7; stroke:none;" d="M188 137C189.248 137.685 189.548 137.749 191 138C189.752 137.315 189.452 137.251 188 137z"/>
<path style="fill:#fcb571; stroke:none;" d="M191 137C192.769 137.779 194.036 137.912 196 138C194.231 137.221 192.964 137.088 191 137z"/>
<path style="fill:#fe8e1f; stroke:none;" d="M198 137C200.208 138.272 202.481 137.682 205 138.306C209.307 139.372 221.505 144.976 223 138C214.439 141.28 206.894 137.001 198 137z"/>
<path style="fill:#fed1a6; stroke:none;" d="M222.667 137.333C222.222 137.778 223.278 137.722 223.333 137.667C223.778 137.222 222.722 137.278 222.667 137.333z"/>
<path style="fill:#fdf7e6; stroke:none;" d="M24 138C27.1633 139.327 30.5856 139 34 139C30.8367 137.673 27.4144 138 24 138z"/>
<path style="fill:#feefce; stroke:none;" d="M34 138C36.6127 139.098 39.1645 138.993 42 139C39.3873 137.902 36.8355 138.007 34 138z"/>
<path style="fill:#fcc47d; stroke:none;" d="M77.3333 138.667C77.2778 138.722 77.2222 139.778 77.6667 139.333C77.7222 139.278 77.7778 138.222 77.3333 138.667z"/>
<path style="fill:#fe820d; stroke:none;" d="M149 138C143.031 145.672 131.948 153.538 122 154C129.079 156.943 138.441 150.228 143.985 146.072C146.8 143.962 149.485 141.624 149 138z"/>
<path style="fill:#fcdfc1; stroke:none;" d="M191 138C192.769 138.779 194.036 138.912 196 139C194.231 138.221 192.964 138.088 191 138z"/>
<path style="fill:#fcc186; stroke:none;" d="M196.667 138.333C196.222 138.778 197.278 138.722 197.333 138.667C197.778 138.222 196.722 138.278 196.667 138.333z"/>
<path style="fill:#fea148; stroke:none;" d="M198 138C200.89 139.213 203.874 138.998 207 139C204.11 137.787 201.126 138.002 198 138z"/>
<path style="fill:#fdae59; stroke:none;" d="M223 138C221.177 140.818 219.285 140.895 216 141C218.613 142.098 221.165 141.993 224 142C223.826 140.315 223.683 139.506 223 138z"/>
<path style="fill:#fec797; stroke:none;" d="M224 138L224 142C224.71 140.241 224.71 139.759 224 138z"/>
<path style="fill:#ffe4cc; stroke:none;" d="M225 138L225 142C225.71 140.241 225.71 139.759 225 138z"/>
<path style="fill:#fdf4e7; stroke:none;" d="M226 138C224.929 141.402 223.456 142.282 220 143C224.029 144.56 227.736 142.489 226 138z"/>
<path style="fill:#fdb767; stroke:none;" d="M78 139C78.2695 141.687 78.8182 143.57 80 146C80.4845 143.255 79.5291 141.318 78 139z"/>
<path style="fill:#fe8a20; stroke:none;" d="M79 139L80 144C80.6514 141.766 80.3182 140.926 79 139z"/>
<path style="fill:#feab60; stroke:none;" d="M85.3333 139.667C85.2778 139.722 85.2222 140.778 85.6667 140.333C85.7222 140.278 85.7778 139.222 85.3333 139.667z"/>
<path style="fill:#fecea4; stroke:none;" d="M86.3333 139.667C86.2778 139.722 86.2222 140.778 86.6667 140.333C86.7222 140.278 86.7778 139.222 86.3333 139.667z"/>
<path style="fill:#fec18d; stroke:none;" d="M144 142C145.457 140.897 145.897 140.457 147 139C144.876 139.899 144.899 139.876 144 142z"/>
<path style="fill:#fcd9b7; stroke:none;" d="M197 139C199.613 140.098 202.165 139.993 205 140C202.387 138.902 199.836 139.007 197 139z"/>
<path style="fill:#fcbd7f; stroke:none;" d="M205 139C206.248 139.685 206.548 139.749 208 140C206.752 139.315 206.452 139.251 205 139z"/>
<path style="fill:#fedeb5; stroke:none;" d="M77.3333 140.667C77.2778 140.722 77.2222 141.778 77.6667 141.333C77.7222 141.278 77.7778 140.222 77.3333 140.667z"/>
<path style="fill:#fde2cc; stroke:none;" d="M87 140C87.982 144.934 90.4866 148.708 95 151C92.6159 147.171 89.9988 143.368 87 140z"/>
<path style="fill:#fe9634; stroke:none;" d="M155 140C154.119 142.021 153.504 143.854 153 146C154.909 144.12 155.911 142.458 157 140L155 140z"/>
<path style="fill:#fdddbb; stroke:none;" d="M206 140C207.248 140.685 207.548 140.749 209 141C207.752 140.315 207.452 140.251 206 140z"/>
<path style="fill:#fcb46f; stroke:none;" d="M209.667 140.333C209.222 140.778 210.278 140.722 210.333 140.667C210.778 140.222 209.722 140.278 209.667 140.333z"/>
<path style="fill:#feb474; stroke:none;" d="M86 141L87 145C87.393 143.076 87.1456 142.64 86 141z"/>
<path style="fill:#fed2ac; stroke:none;" d="M140 144C142.132 143.224 142.771 142.87 144 141C142.051 141.936 141.45 142.392 140 144z"/>
<path style="fill:#fddbba; stroke:none;" d="M210.667 141.333C210.222 141.778 211.278 141.722 211.333 141.667C211.778 141.222 210.722 141.278 210.667 141.333z"/>
<path style="fill:#fbb975; stroke:none;" d="M212 141C213.506 141.683 214.315 141.826 216 142C214.494 141.317 213.685 141.174 212 141z"/>
<path style="fill:#fed6a9; stroke:none;" d="M214 142C217.163 143.327 220.586 143 224 143C220.837 141.673 217.414 142 214 142z"/>
<path style="fill:#ffe6c9; stroke:none;" d="M78.3333 143.667C78.2778 143.722 78.2222 144.778 78.6667 144.333C78.7222 144.278 78.7778 143.222 78.3333 143.667z"/>
<path style="fill:#fde6cc; stroke:none;" d="M155 143L154 147C155.434 145.607 156.045 144.767 157 143L155 143z"/>
<path style="fill:#febe87; stroke:none;" d="M139 144L139 146C140.635 145.455 140.455 145.635 141 144L139 144z"/>
<path style="fill:#ffe6cc; stroke:none;" d="M79 145C79.6836 146.58 79.8048 146.777 81 148C80.3164 146.42 80.1952 146.223 79 145z"/>
<path style="fill:#fe8619; stroke:none;" d="M81 145C82.6832 148.14 84.2848 150.691 87 153C85.8198 149.314 84.4229 146.878 81 145z"/>
<path style="fill:#fea24d; stroke:none;" d="M88 145C88.9357 146.949 89.3924 147.55 91 149C90.0643 147.051 89.6076 146.45 88 145z"/>
<path style="fill:#fee9d5; stroke:none;" d="M128 150C131.912 150.915 135.668 147.963 139 146C135.089 145.349 131.331 148.056 128 150z"/>
<path style="fill:#fdbc73; stroke:none;" d="M81 146C81.547 147.875 82.11 149.255 83 151C83.375 148.581 82.6927 147.782 81 146z"/>
<path style="fill:#fec181; stroke:none;" d="M152 146L152 148C153.635 147.455 153.455 147.635 154 146L152 146z"/>
<path style="fill:#feb270; stroke:none;" d="M134 148C135.809 148.574 136.069 148.465 138 148C136.341 147.594 135.758 147.691 134 148z"/>
<path style="fill:#fe871c; stroke:none;" d="M147 150C148.875 149.453 150.255 148.89 152 148C149.388 147.127 148.453 147.724 147 150z"/>
<path style="fill:#fde0c1; stroke:none;" d="M151 148L151 150C152.635 149.455 152.455 149.635 153 148L151 148z"/>
<path style="fill:#fe9330; stroke:none;" d="M91 149C92.6981 152.242 94.4273 153.274 98 154C95.8223 152.059 93.4963 150.516 91 149z"/>
<path style="fill:#fea658; stroke:none;" d="M131 151C132.58 150.316 132.777 150.195 134 149C132.42 149.684 132.223 149.805 131 151z"/>
<path style="fill:#fec791; stroke:none;" d="M149 149L149 151C150.635 150.455 150.455 150.635 151 149L149 149z"/>
<path style="fill:#feebd7; stroke:none;" d="M82 150C82.6836 151.58 82.8048 151.777 84 153C83.3164 151.42 83.1952 151.223 82 150z"/>
<path style="fill:#fe9c3f; stroke:none;" d="M139 157L149 151C144.3 149.633 140.932 152.98 139 157z"/>
<path style="fill:#fdc98c; stroke:none;" d="M84 151C84.9357 152.949 85.3924 153.55 87 155C86.0643 153.051 85.6076 152.45 84 151z"/>
<path style="fill:#febe82; stroke:none;" d="M94.6667 151.333C94.2222 151.778 95.2778 151.722 95.3333 151.667C95.7778 151.222 94.7222 151.278 94.6667 151.333z"/>
<path style="fill:#fed8b7; stroke:none;" d="M96.6667 151.333C96.2222 151.778 97.2778 151.722 97.3333 151.667C97.7778 151.222 96.7222 151.278 96.6667 151.333z"/>
<path style="fill:#fee0c5; stroke:none;" d="M122 151C124.052 151.874 125.747 151.953 128 152C125.948 151.126 124.253 151.047 122 151z"/>
<path style="fill:#feb877; stroke:none;" d="M128.667 151.333C128.222 151.778 129.278 151.722 129.333 151.667C129.778 151.222 128.722 151.278 128.667 151.333z"/>
<path style="fill:#fe9532; stroke:none;" d="M120 154C123.988 154.954 128.28 153.572 132 152C128.262 151.212 123.64 152.847 120 154z"/>
<path style="fill:#fdd5ae; stroke:none;" d="M145 152C146.809 152.574 147.069 152.465 149 152C147.341 151.594 146.758 151.691 145 152z"/>
<path style="fill:#feb573; stroke:none;" d="M96.6667 152.333C96.2222 152.778 97.2778 152.722 97.3333 152.667C97.7778 152.222 96.7222 152.278 96.6667 152.333z"/>
<path style="fill:#fecc9e; stroke:none;" d="M98 152C99.2484 152.685 99.5484 152.749 101 153C99.7517 152.315 99.4516 152.251 98 152z"/>
<path style="fill:#fedec3; stroke:none;" d="M119 152C120.248 152.685 120.548 152.749 122 153C120.752 152.315 120.452 152.251 119 152z"/>
<path style="fill:#feba7c; stroke:none;" d="M122 152C123.769 152.779 125.036 152.912 127 153C125.231 152.221 123.964 152.088 122 152z"/>
<path style="fill:#fde9d1; stroke:none;" d="M84 153C85.8142 156.878 88.1216 159.186 92 161C89.7092 157.755 87.2451 155.291 84 153z"/>
<path style="fill:#feaa5d; stroke:none;" d="M98 153C99.2484 153.685 99.5484 153.749 101 154C99.7517 153.315 99.4516 153.251 98 153z"/>
<path style="fill:#fed4ad; stroke:none;" d="M101.667 153.333C101.222 153.778 102.278 153.722 102.333 153.667C102.778 153.222 101.722 153.278 101.667 153.333z"/>
<path style="fill:#fedcbe; stroke:none;" d="M103 154C107.538 155.904 113.296 155.12 118 154C113.627 152.655 107.681 154 103 154z"/>
<path style="fill:#fec796; stroke:none;" d="M118 153C119.248 153.685 119.548 153.749 121 154C119.752 153.315 119.452 153.251 118 153z"/>
<path style="fill:#fee9d4; stroke:none;" d="M140 158C142.637 156.617 144.17 155.348 146 153C143.166 154.228 141.573 155.338 140 158z"/>
<path style="fill:#fe8d26; stroke:none;" d="M98 154C99.458 155.081 100.248 155.436 102 156C100.457 154.733 99.9522 154.511 98 154z"/>
<path style="fill:#fea551; stroke:none;" d="M101 154C102.223 155.195 102.42 155.316 104 156C102.777 154.805 102.58 154.684 101 154z"/>
<path style="fill:#febc7f; stroke:none;" d="M116.667 154.333C116.222 154.778 117.278 154.722 117.333 154.667C117.778 154.222 116.722 154.278 116.667 154.333z"/>
<path style="fill:#fea655; stroke:none;" d="M118.667 154.333C118.222 154.778 119.278 154.722 119.333 154.667C119.778 154.222 118.722 154.278 118.667 154.333z"/>
<path style="fill:#fd9c3c; stroke:none;" d="M87 155C88.6238 157.044 89.6428 157.896 92 159C90.3761 156.956 89.3572 156.104 87 155z"/>
<path style="fill:#feb777; stroke:none;" d="M104 155C107.697 156.552 112.017 156 116 156C112.303 154.448 107.983 155 104 155z"/>
<path style="fill:#fe9335; stroke:none;" d="M102 156C107.307 158.227 114.46 157.029 120 156C115.042 154.222 107.415 156 102 156z"/>
<path style="fill:#fe8416; stroke:none;" d="M133 158C135.462 158.697 136.665 158.11 139 157C136.631 156.492 135.268 157.06 133 158z"/>
<path style="fill:#fecb92; stroke:none;" d="M136 158C137.809 158.574 138.069 158.465 140 158C138.341 157.594 137.758 157.691 136 158z"/>
<path style="fill:#febc77; stroke:none;" d="M91 159C92.4498 160.608 93.0514 161.064 95 162C93.5502 160.392 92.9486 159.936 91 159z"/>
<path style="fill:#fe9836; stroke:none;" d="M93 159C95.1471 161.338 96.9238 162.201 100 163C97.8408 160.978 95.8013 159.964 93 159z"/>
<path style="fill:#fe9736; stroke:none;" d="M127 163L133 160C129.939 159.182 128.536 160.36 127 163z"/>
<path style="fill:#fdb878; stroke:none;" d="M131 160C132.943 160.622 133.949 160.436 136 160C134.057 159.378 133.051 159.564 131 160z"/>
<path style="fill:#fec893; stroke:none;" d="M128 162C129.809 162.574 130.069 162.465 132 162C130.341 161.594 129.758 161.691 128 162z"/>
<path style="fill:#ffe9d4; stroke:none;" d="M57 162C59.7386 163.463 61.4786 164.212 63 167C64.4392 162.608 60.5946 162.118 57 162z"/>
<path style="fill:#fed6a9; stroke:none;" d="M94.6667 162.333C94.2222 162.778 95.2778 162.722 95.3333 162.667C95.7778 162.222 94.7222 162.278 94.6667 162.333z"/>
<path style="fill:#feb468; stroke:none;" d="M96.6667 162.333C96.2222 162.778 97.2778 162.722 97.3333 162.667C97.7778 162.222 96.7222 162.278 96.6667 162.333z"/>
<path style="fill:#ffe0c0; stroke:none;" d="M168 162L168 165C168.696 163.446 168.696 163.554 168 162z"/>
<path style="fill:#fec89a; stroke:none;" d="M169 162C169.574 165.698 170.655 167.316 174 169L170 163L174 163C172.231 162.221 170.964 162.088 169 162z"/>
<path style="fill:#ffe5cd; stroke:none;" d="M55.6667 163.333C55.2222 163.778 56.2778 163.722 56.3333 163.667C56.7777 163.222 55.7222 163.278 55.6667 163.333z"/>
<path style="fill:#fec690; stroke:none;" d="M57 163C58.769 163.779 60.0359 163.912 62 164C60.231 163.221 58.9641 163.088 57 163z"/>
<path style="fill:#fef1e4; stroke:none;" d="M95 163C96.7505 164.255 97.8573 164.614 100 165C98.2495 163.745 97.1426 163.386 95 163z"/>
<path style="fill:#fec083; stroke:none;" d="M98.6667 163.333C98.2222 163.778 99.2778 163.722 99.3333 163.667C99.7778 163.222 98.7222 163.278 98.6667 163.333z"/>
<path style="fill:#fea753; stroke:none;" d="M100.667 163.333C100.222 163.778 101.278 163.722 101.333 163.667C101.778 163.222 100.722 163.278 100.667 163.333z"/>
<path style="fill:#fda24a; stroke:none;" d="M118 165C120.851 165.844 123.183 164.889 126 164C123.199 163.22 120.803 164.263 118 165z"/>
<path style="fill:#fec688; stroke:none;" d="M126.667 163.333C126.222 163.778 127.278 163.722 127.333 163.667C127.778 163.222 126.722 163.278 126.667 163.333z"/>
<path style="fill:#fea655; stroke:none;" d="M170 163C170 164.797 170.014 164.521 171 166L174 164C172.494 163.317 171.685 163.174 170 163z"/>
<path style="fill:#febf87; stroke:none;" d="M174 163C175.248 163.685 175.548 163.749 177 164C175.752 163.315 175.452 163.251 174 163z"/>
<path style="fill:#fecb9d; stroke:none;" d="M48 168C51.2537 168.45 53.9898 166.238 57 165C53.4456 163.874 50.9261 165.991 48 168z"/>
<path style="fill:#fea651; stroke:none;" d="M57 164C58.8128 165.265 59.8827 166.102 61 168C61.683 166.494 61.8259 165.685 62 164L57 164z"/>
<path style="fill:#fec184; stroke:none;" d="M62 164L62 167C62.6961 165.446 62.6961 165.554 62 164z"/>
<path style="fill:#fdd0a3; stroke:none;" d="M100.667 164.333C100.222 164.778 101.278 164.722 101.333 164.667C101.778 164.222 100.722 164.278 100.667 164.333z"/>
<path style="fill:#fdb465; stroke:none;" d="M102 164C106.886 167.474 112.246 167 118 167C113.569 165.141 106.859 164.592 102 164z"/>
<path style="fill:#fecc98; stroke:none;" d="M124.667 164.333C124.222 164.778 125.278 164.722 125.333 164.667C125.778 164.222 124.722 164.278 124.667 164.333z"/>
<path style="fill:#fe800d; stroke:none;" d="M172 164C175.819 170.495 187.057 176.368 194 179C191.713 170.924 179.818 165.351 172 164z"/>
<path style="fill:#fea454; stroke:none;" d="M175.667 164.333C175.222 164.778 176.278 164.722 176.333 164.667C176.778 164.222 175.722 164.278 175.667 164.333z"/>
<path style="fill:#febd7e; stroke:none;" d="M177 164C178.248 164.685 178.548 164.749 180 165C178.752 164.315 178.452 164.251 177 164z"/>
<path style="fill:#fe8f26; stroke:none;" d="M50 168C53.9754 168.868 56.4441 165.801 60 169L61 165C56.6997 165.05 53.7675 165.927 50 168z"/>
<path style="fill:#fbca99; stroke:none;" d="M103.667 165.333C103.222 165.778 104.278 165.722 104.333 165.667C104.778 165.222 103.722 165.278 103.667 165.333z"/>
<path style="fill:#fe8c22; stroke:none;" d="M107 165C110.432 166.44 114.3 166 118 166C114.568 164.56 110.7 165 107 165z"/>
<path style="fill:#fdcb98; stroke:none;" d="M121 165C122.248 165.685 122.548 165.749 124 166C122.752 165.315 122.452 165.251 121 165z"/>
<path style="fill:#fe9d42; stroke:none;" d="M177 165C178.248 165.685 178.548 165.749 180 166C178.752 165.315 178.452 165.251 177 165z"/>
<path style="fill:#fecd9f; stroke:none;" d="M180.667 165.333C180.222 165.778 181.278 165.722 181.333 165.667C181.778 165.222 180.722 165.278 180.667 165.333z"/>
<path style="fill:#ffebda; stroke:none;" d="M182 165C183.624 167.044 184.643 167.896 187 169C185.376 166.956 184.357 166.104 182 165z"/>
<path style="fill:#fd8210; stroke:none;" d="M42 179C47.626 178.136 57.2187 171.523 59 166C52.1017 166.984 43.2392 171.603 42 179z"/>
<path style="fill:#fee0b8; stroke:none;" d="M104 166C107.886 168.944 113.284 168 118 168C113.807 166.241 108.537 166.842 104 166z"/>
<path style="fill:#fccfa2; stroke:none;" d="M118.667 166.333C118.222 166.778 119.278 166.722 119.333 166.667C119.778 166.222 118.722 166.278 118.667 166.333z"/>
<path style="fill:#fd9934; stroke:none;" d="M172 166C173.45 167.608 174.051 168.064 176 169C174.55 167.392 173.949 166.936 172 166z"/>
<path style="fill:#fea654; stroke:none;" d="M180 166C182.383 168.573 184.66 169.933 188 171C185.608 168.342 183.465 166.901 180 166z"/>
<path style="fill:#fee0bb; stroke:none;" d="M60 168L60 170C61.6352 169.455 61.4549 169.635 62 168L60 168z"/>
<path style="fill:#fea961; stroke:none;" d="M43 175C45.5075 173.205 47.2048 171.508 49 169C45.8959 170.482 44.4821 171.896 43 175z"/>
<path style="fill:#fdc78a; stroke:none;" d="M58 169L58 171C59.6351 170.455 59.4549 170.635 60 169L58 169z"/>
<path style="fill:#fccf9a; stroke:none;" d="M174 169C175.223 170.195 175.42 170.316 177 171C175.777 169.805 175.58 169.684 174 169z"/>
<path style="fill:#fea043; stroke:none;" d="M176 169C177.223 170.195 177.42 170.316 179 171C177.777 169.805 177.58 169.684 176 169z"/>
<path style="fill:#fedab9; stroke:none;" d="M187 169C188.223 170.195 188.42 170.316 190 171C188.777 169.805 188.58 169.684 187 169z"/>
<path style="fill:#fff6eb; stroke:none;" d="M189 169C191.04 171.88 193.12 173.96 196 176C194.351 172.498 192.502 170.649 189 169z"/>
<path style="fill:#fda347; stroke:none;" d="M52 174L58 171C54.9394 170.182 53.5357 171.36 52 174z"/>
<path style="fill:#fee6ce; stroke:none;" d="M52 174C54.8883 174.41 56.1145 173.153 58 171C55.7778 171.81 54.0098 172.739 52 174z"/>
<path style="fill:#fcd3a8; stroke:none;" d="M177 171C178.223 172.195 178.42 172.316 180 173C178.777 171.805 178.58 171.684 177 171z"/>
<path style="fill:#fdad5f; stroke:none;" d="M179 171C180.223 172.195 180.42 172.316 182 173C180.777 171.805 180.58 171.684 179 171z"/>
<path style="fill:#feba77; stroke:none;" d="M188 171C190.759 173.983 193.676 176.667 197 179C195.043 174.817 192.48 172.258 188 171z"/>
<path style="fill:#fd9430; stroke:none;" d="M182 172C183.45 173.608 184.051 174.064 186 175C184.55 173.392 183.949 172.936 182 172z"/>
<path style="fill:#fbd0a2; stroke:none;" d="M180 173C181.458 174.081 182.248 174.436 184 175C182.457 173.733 181.952 173.511 180 173z"/>
<path style="fill:#fec698; stroke:none;" d="M41 174L41 176C42.6352 175.455 42.455 175.635 43 174L41 174z"/>
<path style="fill:#fdd2a1; stroke:none;" d="M39 183C44.3174 184.129 49.2048 177.935 52 174C47.1952 176.227 43.497 180.187 39 183z"/>
<path style="fill:#fbc68c; stroke:none;" d="M184 175C185.223 176.195 185.42 176.316 187 177C185.777 175.805 185.58 175.684 184 175z"/>
<path style="fill:#fe9b3d; stroke:none;" d="M186 175C187.223 176.195 187.42 176.316 189 177C187.777 175.805 187.58 175.684 186 175z"/>
<path style="fill:#fea860; stroke:none;" d="M32 189C33.6615 188.387 34.4833 187.957 36 187C35.1656 182.556 39.5804 179.442 42 176C36.4075 178.61 32.9703 182.891 32 189z"/>
<path style="fill:#fe8b1f; stroke:none;" d="M41 177C39.9519 178.856 39.4875 179.944 39 182C41.1722 181.536 42.9583 180.895 45 180L41 177z"/>
<path style="fill:#fcc78d; stroke:none;" d="M187 177C188.223 178.195 188.42 178.316 190 179C188.777 177.805 188.58 177.684 187 177z"/>
<path style="fill:#fd9b3d; stroke:none;" d="M189 177C190.223 178.195 190.42 178.316 192 179C190.777 177.805 190.58 177.684 189 177z"/>
<path style="fill:#fea64b; stroke:none;" d="M194 177L192 180C193.801 180.562 195.122 180.824 197 181C196.064 179.051 195.608 178.45 194 177z"/>
<path style="fill:#fbc489; stroke:none;" d="M190 179C191.45 180.608 192.051 181.064 194 182C192.55 180.392 191.949 179.936 190 179z"/>
<path style="fill:#feca8d; stroke:none;" d="M197 179C197.18 181.038 197.164 181.448 196 183L200 184C199.349 181.566 198.84 180.717 197 179z"/>
<path style="fill:#fd9632; stroke:none;" d="M38 180C36.2419 182.012 35.084 183.581 34 186C36.6093 185.341 38.6396 184.313 41 183C40.0275 181.73 39.2699 180.973 38 180z"/>
<path style="fill:#feb466; stroke:none;" d="M194 181C195.506 181.683 196.315 181.826 198 182C196.494 181.317 195.685 181.174 194 181z"/>
<path style="fill:#fcdebd; stroke:none;" d="M194 182C195.223 183.195 195.42 183.316 197 184C195.777 182.805 195.58 182.684 194 182z"/>
<path style="fill:#ffdbaf; stroke:none;" d="M200 182C198.777 183.195 198.58 183.316 197 184C199.139 184.952 200.976 184.577 200 182z"/>
<path style="fill:#feecd5; stroke:none;" d="M201 182C200.101 184.124 200.124 184.101 198 185C199.506 185.683 200.315 185.826 202 186C201.826 184.315 201.683 183.506 201 182z"/>
<path style="fill:#fff1e2; stroke:none;" d="M137 183L137 187C138.351 185.598 139.254 184.824 141 184C139.494 183.317 138.685 183.174 137 183z"/>
<path style="fill:#fecd9b; stroke:none;" d="M32 184C30.663 186.479 30.1837 188.19 30 191L34 190L32 184z"/>
<path style="fill:#fdead0; stroke:none;" d="M34 190C36.5075 188.205 38.2048 186.508 40 184C36.896 185.482 35.4821 186.896 34 190z"/>
<path style="fill:#feca9a; stroke:none;" d="M138 184L138 188C139.567 187.302 140.286 187.126 142 187C140.774 184.965 140.297 184.674 138 184z"/>
<path style="fill:#ffecd7; stroke:none;" d="M90 186C91.3411 187.274 92.4031 188.041 94 189C92.7741 186.965 92.2974 186.674 90 186z"/>
<path style="fill:#feb466; stroke:none;" d="M139 186L140 190C141.195 189.402 140.977 189.534 142 188C143.103 189.457 143.543 189.897 145 191C143.483 188.082 142.107 187.078 139 186z"/>
<path style="fill:#ffe1c7; stroke:none;" d="M29 187C29.0642 189.993 28.9461 191.346 32 192L29 187z"/>
<path style="fill:#feba73; stroke:none;" d="M87 191C90.5599 190.005 91.8788 190.411 93 194C94.9681 188.758 89.9063 185.794 87 191z"/>
<path style="fill:#fea240; stroke:none;" d="M141 188C141.537 192.021 142.895 194.401 146 197C145.54 192.865 144.258 190.582 141 188z"/>
<path style="fill:#fe9432; stroke:none;" d="M87 193L92 190C89.1841 189.389 88.3252 190.556 87 193z"/>
<path style="fill:#feddbd; stroke:none;" d="M94 189L94 194C94.8299 191.97 94.8299 191.03 94 189z"/>
<path style="fill:#ffe8cb; stroke:none;" d="M139.333 189.667C139.278 189.722 139.222 190.778 139.667 190.333C139.722 190.278 139.778 189.222 139.333 189.667z"/>
<path style="fill:#fec593; stroke:none;" d="M86 190C84.8172 192.328 83.7771 194.511 83 197C85.2559 194.853 86.7276 193.133 86 190z"/>
<path style="fill:#fd8007; stroke:none;" d="M81 208L85 208C86.5367 201.533 91.507 196.598 92 190C85.5405 193.175 81.2104 200.915 81 208z"/>
<path style="fill:#fe962f; stroke:none;" d="M92 190L92 194C92.7102 192.241 92.7102 191.759 92 190z"/>
<path style="fill:#fdd5a3; stroke:none;" d="M140.333 190.667C140.278 190.722 140.222 191.778 140.667 191.333C140.722 191.278 140.778 190.222 140.333 190.667z"/>
<path style="fill:#fec99d; stroke:none;" d="M145 191C145.684 192.58 145.805 192.777 147 194C146.316 192.42 146.195 192.223 145 191z"/>
<path style="fill:#fdcb8e; stroke:none;" d="M141 192C141.684 193.58 141.805 193.777 143 195C142.316 193.42 142.195 193.223 141 192z"/>
<path style="fill:#fe9a3e; stroke:none;" d="M86 193C83.9271 195.929 82.1293 198.588 81 202C83.7289 199.567 86.5222 196.808 86 193z"/>
<path style="fill:#fedfc7; stroke:none;" d="M147.333 193.667C147.278 193.722 147.222 194.778 147.667 194.333C147.722 194.278 147.778 193.222 147.333 193.667z"/>
<path style="fill:#feb46a; stroke:none;" d="M92 194C91.0427 195.517 90.6128 196.339 90 198C91.63 196.485 92.1631 196.145 92 194z"/>
<path style="fill:#fde6cc; stroke:none;" d="M93.3333 194.667C93.2778 194.722 93.2222 195.778 93.6667 195.333C93.7222 195.278 93.7778 194.222 93.3333 194.667z"/>
<path style="fill:#feefdb; stroke:none;" d="M141 194C141.684 195.58 141.805 195.777 143 197C142.316 195.42 142.195 195.223 141 194z"/>
<path style="fill:#feb15a; stroke:none;" d="M146 194L145 198C146.656 196.596 146.751 196.046 146 194z"/>
<path style="fill:#facc94; stroke:none;" d="M143 195C143.684 196.58 143.805 196.777 145 198C144.316 196.42 144.195 196.223 143 195z"/>
<path style="fill:#ffbc74; stroke:none;" d="M147 195L145 200C148.012 199.354 148.498 197.613 147 195z"/>
<path style="fill:#fddab8; stroke:none;" d="M82 196C79.2251 200.601 76.6367 204.707 81 209C79.7868 204.06 82.736 200.495 82 196z"/>
<path style="fill:#fbddc1; stroke:none;" d="M92 196C90.9519 197.856 90.4875 198.944 90 201C91.5544 199.218 92.2416 198.329 92 196z"/>
<path style="fill:#ffdcc1; stroke:none;" d="M148.333 196.667C148.278 196.722 148.222 197.778 148.667 197.333C148.722 197.278 148.778 196.222 148.333 196.667z"/>
<path style="fill:#fe9229; stroke:none;" d="M89 197C87.4959 199.673 86.5352 201.981 86 205C88.0132 202.559 89.5307 200.18 89 197z"/>
<path style="fill:#fef1e0; stroke:none;" d="M143 197C143.684 198.58 143.805 198.777 145 200C144.316 198.42 144.195 198.223 143 197z"/>
<path style="fill:#fed49e; stroke:none;" d="M148 198C147.455 199.635 147.635 199.455 146 200C148.033 200.785 148.785 200.033 148 198z"/>
<path style="fill:#ffe5c8; stroke:none;" d="M149 198C148.101 200.124 148.124 200.101 146 201C147.506 201.683 148.315 201.826 150 202C149.826 200.315 149.683 199.506 149 198z"/>
<path style="fill:#febc76; stroke:none;" d="M89 199L87 205C88.915 202.968 89.7443 201.735 89 199z"/>
<path style="fill:#fff4e8; stroke:none;" d="M150 199C149.176 200.746 148.402 201.649 147 203L151 204C150.912 202.036 150.779 200.769 150 199z"/>
<path style="fill:#fea148; stroke:none;" d="M80 202L80 207C80.8299 204.97 80.8299 204.03 80 202z"/>
<path style="fill:#fec27f; stroke:none;" d="M79 203L79 206C79.6961 204.446 79.6961 204.554 79 203z"/>
<path style="fill:#fceede; stroke:none;" d="M88 204C87.0427 205.517 86.6128 206.339 86 208C87.63 206.485 88.1631 206.145 88 204z"/>
<path style="fill:#feae5a; stroke:none;" d="M85 205L85 208C86.0154 206.861 86.3087 206.388 87 205L85 205z"/>
<path style="fill:#fea955; stroke:none;" d="M81 208C82.2484 208.685 82.5484 208.749 84 209C82.7517 208.315 82.4516 208.251 81 208z"/>
<path style="fill:#fde4c6; stroke:none;" d="M84 208L84 210C85.6352 209.455 85.4549 209.635 86 208L84 208z"/>
<path style="fill:#fece96; stroke:none;" d="M81 209C82.2484 209.685 82.5484 209.749 84 210C82.7517 209.315 82.4516 209.251 81 209z"/>
</svg>
